<svg xmlns="http://www.w3.org/2000/svg" width="127.362" height="40" viewBox="0 0 127.362 40">
  <g id="Group_16" data-name="Group 16" transform="translate(-160 -130)">
    <g id="Group_12" data-name="Group 12" transform="translate(32 112)">
      <circle id="Ellipse_6" data-name="Ellipse 6" cx="20" cy="20" r="20" transform="translate(128 18)" fill="#fd0272"/>
      <g id="next" transform="matrix(0.788, -0.616, 0.616, 0.788, 114.62, 11.737)">
        <g id="Group_2" data-name="Group 2" transform="translate(0 30.99)">
          <g id="Group_1" data-name="Group 1" transform="translate(0 0)">
            <path id="Path_1" data-name="Path 1" d="M23.651,38.931l-9.914-7.794a.639.639,0,0,0-.729-.059.791.791,0,0,0-.381.693v3.918C5.6,36.095,0,42.573,0,50.477v3.118a.757.757,0,0,0,.6.772.7.7,0,0,0,.771-.557l.108-.421c1.439-5.593,5.961-9.572,11.143-9.9v3.875a.791.791,0,0,0,.381.693.642.642,0,0,0,.729-.059L23.651,40.2a.832.832,0,0,0,0-1.268Z" transform="translate(0 -30.99)" fill="#d10761"/>
          </g>
        </g>
      </g>
      <g id="next-2" data-name="next" transform="matrix(0.788, -0.616, 0.616, 0.788, 113.149, 9.832)">
        <g id="Group_2-2" data-name="Group 2" transform="translate(0 30.99)">
          <g id="Group_1-2" data-name="Group 1" transform="translate(0 0)">
            <path id="Path_1-2" data-name="Path 1" d="M22.427,38.52l-9.4-7.391a.606.606,0,0,0-.691-.056.75.75,0,0,0-.361.657v3.715C5.312,35.83,0,41.973,0,49.468v2.956a.718.718,0,0,0,.573.732.667.667,0,0,0,.731-.528l.1-.4c1.364-5.3,5.653-9.077,10.566-9.392v3.675a.75.75,0,0,0,.361.657.608.608,0,0,0,.691-.056l9.4-7.391a.789.789,0,0,0,0-1.2Z" transform="translate(0 -30.99)" fill="#fff"/>
          </g>
        </g>
      </g>
    </g>
    <path id="Path_3" data-name="Path 3" d="M8.239-9.326a1.618,1.618,0,0,0-.658-1.2A2.609,2.609,0,0,0,6-10.956a3.061,3.061,0,0,0-1.144.189,1.609,1.609,0,0,0-.713.521,1.235,1.235,0,0,0-.246.754,1.062,1.062,0,0,0,.15.614,1.466,1.466,0,0,0,.451.451,3.219,3.219,0,0,0,.665.326,6.5,6.5,0,0,0,.805.233l1.176.281a8.3,8.3,0,0,1,1.572.511,4.776,4.776,0,0,1,1.24.786,3.306,3.306,0,0,1,.815,1.1,3.506,3.506,0,0,1,.3,1.451,3.618,3.618,0,0,1-.61,2.081A3.889,3.889,0,0,1,8.722-.3,6.965,6.965,0,0,1,5.989.185,7.177,7.177,0,0,1,3.231-.3,4.014,4.014,0,0,1,1.4-1.742,4.268,4.268,0,0,1,.716-4.11H3.394a1.979,1.979,0,0,0,.38,1.1,2.039,2.039,0,0,0,.9.658,3.507,3.507,0,0,0,1.282.221,3.34,3.34,0,0,0,1.224-.2,1.873,1.873,0,0,0,.809-.569,1.314,1.314,0,0,0,.288-.837,1.1,1.1,0,0,0-.259-.741A2.021,2.021,0,0,0,7.265-5a7.792,7.792,0,0,0-1.211-.384L4.628-5.74A5.977,5.977,0,0,1,2.013-7a2.921,2.921,0,0,1-.952-2.308A3.419,3.419,0,0,1,1.7-11.384a4.246,4.246,0,0,1,1.767-1.387,6.25,6.25,0,0,1,2.557-.5,6.071,6.071,0,0,1,2.547.5,4.028,4.028,0,0,1,1.7,1.387,3.67,3.67,0,0,1,.626,2.058ZM17.2.192a4.992,4.992,0,0,1-2.573-.636,4.3,4.3,0,0,1-1.672-1.777,5.705,5.705,0,0,1-.588-2.65,5.735,5.735,0,0,1,.588-2.662A4.3,4.3,0,0,1,14.629-9.31,4.992,4.992,0,0,1,17.2-9.946a4.992,4.992,0,0,1,2.573.636,4.3,4.3,0,0,1,1.672,1.777,5.735,5.735,0,0,1,.588,2.662,5.705,5.705,0,0,1-.588,2.65A4.3,4.3,0,0,1,19.774-.444,4.992,4.992,0,0,1,17.2.192Zm.013-2.109A1.684,1.684,0,0,0,18.346-2.3a2.378,2.378,0,0,0,.687-1.058,4.639,4.639,0,0,0,.233-1.528,4.639,4.639,0,0,0-.233-1.528,2.4,2.4,0,0,0-.687-1.061,1.675,1.675,0,0,0-1.131-.39,1.721,1.721,0,0,0-1.147.39,2.363,2.363,0,0,0-.7,1.061,4.639,4.639,0,0,0-.233,1.528,4.639,4.639,0,0,0,.233,1.528,2.341,2.341,0,0,0,.7,1.058A1.73,1.73,0,0,0,17.214-1.918ZM28.139.192a4.992,4.992,0,0,1-2.592-.642,4.273,4.273,0,0,1-1.662-1.787,5.759,5.759,0,0,1-.578-2.634,5.731,5.731,0,0,1,.585-2.65A4.326,4.326,0,0,1,25.557-9.3a4.936,4.936,0,0,1,2.57-.642,5.114,5.114,0,0,1,2.25.467A3.761,3.761,0,0,1,31.9-8.169a3.851,3.851,0,0,1,.62,1.982h-2.57a2.008,2.008,0,0,0-.572-1.186,1.664,1.664,0,0,0-1.211-.451,1.823,1.823,0,0,0-1.1.342,2.208,2.208,0,0,0-.732.994,4.236,4.236,0,0,0-.262,1.579,4.375,4.375,0,0,0,.259,1.6,2.2,2.2,0,0,0,.732,1,1.826,1.826,0,0,0,1.106.345,1.815,1.815,0,0,0,.841-.192,1.64,1.64,0,0,0,.62-.559,2.13,2.13,0,0,0,.323-.885h2.57a4.024,4.024,0,0,1-.61,1.978A3.721,3.721,0,0,1,30.408-.288,5.019,5.019,0,0,1,28.139.192ZM34.167,0V-9.818H36.89V0Zm1.374-11.084A1.473,1.473,0,0,1,34.5-11.49a1.287,1.287,0,0,1-.435-.975,1.28,1.28,0,0,1,.435-.968,1.465,1.465,0,0,1,1.036-.406,1.47,1.47,0,0,1,1.045.406,1.284,1.284,0,0,1,.431.968,1.291,1.291,0,0,1-.431.975A1.462,1.462,0,0,1,35.542-11.084ZM41.756.185a4.057,4.057,0,0,1-1.675-.329,2.647,2.647,0,0,1-1.16-.978,2.9,2.9,0,0,1-.425-1.62,2.862,2.862,0,0,1,.3-1.374,2.432,2.432,0,0,1,.818-.895,3.964,3.964,0,0,1,1.179-.511,8.88,8.88,0,0,1,1.39-.243q.857-.089,1.381-.169a1.928,1.928,0,0,0,.761-.24.534.534,0,0,0,.237-.473v-.038a1.181,1.181,0,0,0-.38-.94A1.585,1.585,0,0,0,43.1-7.958a1.919,1.919,0,0,0-1.17.323,1.515,1.515,0,0,0-.575.809l-2.518-.2a3.444,3.444,0,0,1,.754-1.55,3.658,3.658,0,0,1,1.454-1.01,5.568,5.568,0,0,1,2.068-.355,6.32,6.32,0,0,1,1.569.192,4.138,4.138,0,0,1,1.336.594,2.908,2.908,0,0,1,.924,1.032,3.135,3.135,0,0,1,.339,1.505V0H44.7V-1.362h-.077a2.731,2.731,0,0,1-.633.809,2.854,2.854,0,0,1-.952.543A3.878,3.878,0,0,1,41.756.185Zm.78-1.879a2.264,2.264,0,0,0,1.061-.24,1.856,1.856,0,0,0,.722-.649,1.681,1.681,0,0,0,.262-.927V-4.551a1.392,1.392,0,0,1-.348.15q-.221.067-.5.121t-.55.1l-.5.074a3.369,3.369,0,0,0-.837.224,1.352,1.352,0,0,0-.556.412,1.026,1.026,0,0,0-.2.642.977.977,0,0,0,.406.847A1.729,1.729,0,0,0,42.535-1.694Zm9.48-11.4V0H49.292V-13.091ZM55.672.166a1.477,1.477,0,0,1-1.083-.451,1.477,1.477,0,0,1-.451-1.083,1.459,1.459,0,0,1,.451-1.074,1.483,1.483,0,0,1,1.083-.447,1.492,1.492,0,0,1,1.074.447,1.445,1.445,0,0,1,.46,1.074,1.442,1.442,0,0,1-.214.77,1.643,1.643,0,0,1-.559.556A1.447,1.447,0,0,1,55.672.166ZM59.38,0V-13.091h2.768V-2.282H67.76V0ZM69.89,3.663a5.549,5.549,0,0,1-.968-.08,4,4,0,0,1-.745-.195l.614-2.039a2.46,2.46,0,0,0,1.218.118A1.164,1.164,0,0,0,70.791.7l.16-.415-3.522-10.1h2.864l2.033,7.21h.1l2.052-7.21,2.883.013L73.546,1.061A4.582,4.582,0,0,1,72.8,2.432a3.161,3.161,0,0,1-1.186.908A4.18,4.18,0,0,1,69.89,3.663Z" transform="translate(210 157)" fill="#1e1f22"/>
  </g>
</svg>
