<svg xmlns="http://www.w3.org/2000/svg" width="40" height="40" viewBox="0 0 40 40">
  <g id="Group_12" data-name="Group 12" transform="translate(-128 -18)">
    <circle id="Ellipse_6" data-name="Ellipse 6" cx="20" cy="20" r="20" transform="translate(128 18)" fill="#fd0272"/>
    <g id="next" transform="matrix(0.788, -0.616, 0.616, 0.788, 114.62, 11.737)">
      <g id="Group_2" data-name="Group 2" transform="translate(0 30.99)">
        <g id="Group_1" data-name="Group 1" transform="translate(0 0)">
          <path id="Path_1" data-name="Path 1" d="M23.651,38.931l-9.914-7.794a.639.639,0,0,0-.729-.059.791.791,0,0,0-.381.693v3.918C5.6,36.095,0,42.573,0,50.477v3.118a.757.757,0,0,0,.6.772.7.7,0,0,0,.771-.557l.108-.421c1.439-5.593,5.961-9.572,11.143-9.9v3.875a.791.791,0,0,0,.381.693.642.642,0,0,0,.729-.059L23.651,40.2a.832.832,0,0,0,0-1.268Z" transform="translate(0 -30.99)" fill="#d10761"/>
        </g>
      </g>
    </g>
    <g id="next-2" data-name="next" transform="matrix(0.788, -0.616, 0.616, 0.788, 113.149, 9.832)">
      <g id="Group_2-2" data-name="Group 2" transform="translate(0 30.99)">
        <g id="Group_1-2" data-name="Group 1" transform="translate(0 0)">
          <path id="Path_1-2" data-name="Path 1" d="M22.427,38.52l-9.4-7.391a.606.606,0,0,0-.691-.056.75.75,0,0,0-.361.657v3.715C5.312,35.83,0,41.973,0,49.468v2.956a.718.718,0,0,0,.573.732.667.667,0,0,0,.731-.528l.1-.4c1.364-5.3,5.653-9.077,10.566-9.392v3.675a.75.75,0,0,0,.361.657.608.608,0,0,0,.691-.056l9.4-7.391a.789.789,0,0,0,0-1.2Z" transform="translate(0 -30.99)" fill="#fff"/>
        </g>
      </g>
    </g>
  </g>
</svg>
